<mxfile host="Electron" modified="2023-11-08T11:59:27.564Z" agent="Mozilla/5.0 (X11; Linux x86_64) AppleWebKit/537.36 (KHTML, like Gecko) draw.io/22.0.3 Chrome/114.0.5735.289 Electron/25.8.4 Safari/537.36" etag="nBZPkFlZnaRzJkrGsgCq" version="22.0.3" type="device">
  <diagram id="C5RBs43oDa-KdzZeNtuy" name="Page-1">
    <mxGraphModel dx="1137" dy="703" grid="1" gridSize="10" guides="1" tooltips="1" connect="1" arrows="1" fold="1" page="1" pageScale="1" pageWidth="827" pageHeight="1169" math="0" shadow="0">
      <root>
        <mxCell id="WIyWlLk6GJQsqaUBKTNV-0" />
        <mxCell id="WIyWlLk6GJQsqaUBKTNV-1" parent="WIyWlLk6GJQsqaUBKTNV-0" />
        <mxCell id="JnTwqojmw0CL8Mj9mbNn-37" value="start" style="rounded=1;whiteSpace=wrap;html=1;fontSize=12;glass=0;strokeWidth=1;shadow=0;" parent="WIyWlLk6GJQsqaUBKTNV-1" vertex="1">
          <mxGeometry x="180" y="10" width="120" height="40" as="geometry" />
        </mxCell>
        <mxCell id="JnTwqojmw0CL8Mj9mbNn-39" value="" style="edgeStyle=orthogonalEdgeStyle;rounded=0;orthogonalLoop=1;jettySize=auto;html=1;fontStyle=1" parent="WIyWlLk6GJQsqaUBKTNV-1" source="JnTwqojmw0CL8Mj9mbNn-40" target="JnTwqojmw0CL8Mj9mbNn-43" edge="1">
          <mxGeometry relative="1" as="geometry" />
        </mxCell>
        <mxCell id="JnTwqojmw0CL8Mj9mbNn-40" value="Data Collection&lt;br&gt;" style="shape=cylinder3;whiteSpace=wrap;html=1;boundedLbl=1;backgroundOutline=1;size=15;fontStyle=1" parent="WIyWlLk6GJQsqaUBKTNV-1" vertex="1">
          <mxGeometry x="480" y="1000" width="120" height="70" as="geometry" />
        </mxCell>
        <mxCell id="JnTwqojmw0CL8Mj9mbNn-41" style="edgeStyle=orthogonalEdgeStyle;rounded=0;orthogonalLoop=1;jettySize=auto;html=1;entryX=0.5;entryY=0;entryDx=0;entryDy=0;fontStyle=1;exitX=0.5;exitY=1;exitDx=0;exitDy=0;" parent="WIyWlLk6GJQsqaUBKTNV-1" source="IKP5gJaBZjSgFD29eXoL-1" target="JnTwqojmw0CL8Mj9mbNn-47" edge="1">
          <mxGeometry relative="1" as="geometry">
            <Array as="points">
              <mxPoint x="540" y="1260" />
              <mxPoint x="785" y="1260" />
            </Array>
            <mxPoint x="590" y="1230" as="sourcePoint" />
          </mxGeometry>
        </mxCell>
        <mxCell id="JnTwqojmw0CL8Mj9mbNn-42" style="edgeStyle=orthogonalEdgeStyle;rounded=0;orthogonalLoop=1;jettySize=auto;html=1;entryX=0.5;entryY=0;entryDx=0;entryDy=0;fontStyle=1" parent="WIyWlLk6GJQsqaUBKTNV-1" target="JnTwqojmw0CL8Mj9mbNn-45" edge="1">
          <mxGeometry relative="1" as="geometry">
            <mxPoint x="540" y="1210" as="sourcePoint" />
            <Array as="points">
              <mxPoint x="540" y="1260" />
              <mxPoint x="420" y="1260" />
            </Array>
          </mxGeometry>
        </mxCell>
        <mxCell id="JnTwqojmw0CL8Mj9mbNn-43" value="EDA and&amp;nbsp; &amp;nbsp;&lt;br&gt;Preprocessing" style="rounded=0;whiteSpace=wrap;html=1;fontStyle=1" parent="WIyWlLk6GJQsqaUBKTNV-1" vertex="1">
          <mxGeometry x="465" y="1090" width="150" height="50" as="geometry" />
        </mxCell>
        <mxCell id="JnTwqojmw0CL8Mj9mbNn-44" style="edgeStyle=orthogonalEdgeStyle;rounded=0;orthogonalLoop=1;jettySize=auto;html=1;entryX=0.5;entryY=0;entryDx=0;entryDy=0;fontStyle=1" parent="WIyWlLk6GJQsqaUBKTNV-1" source="JnTwqojmw0CL8Mj9mbNn-45" target="JnTwqojmw0CL8Mj9mbNn-49" edge="1">
          <mxGeometry relative="1" as="geometry" />
        </mxCell>
        <mxCell id="JnTwqojmw0CL8Mj9mbNn-45" value="Training(70 / 80)&lt;br&gt;" style="rounded=0;whiteSpace=wrap;html=1;fontStyle=1" parent="WIyWlLk6GJQsqaUBKTNV-1" vertex="1">
          <mxGeometry x="360" y="1280" width="120" height="50" as="geometry" />
        </mxCell>
        <mxCell id="JnTwqojmw0CL8Mj9mbNn-46" style="edgeStyle=orthogonalEdgeStyle;rounded=0;orthogonalLoop=1;jettySize=auto;html=1;exitX=0.5;exitY=1;exitDx=0;exitDy=0;fontStyle=1" parent="WIyWlLk6GJQsqaUBKTNV-1" edge="1">
          <mxGeometry relative="1" as="geometry">
            <mxPoint x="540" y="1480" as="targetPoint" />
            <mxPoint x="825" y="1360" as="sourcePoint" />
            <Array as="points">
              <mxPoint x="790" y="1360" />
              <mxPoint x="790" y="1480" />
            </Array>
          </mxGeometry>
        </mxCell>
        <mxCell id="JnTwqojmw0CL8Mj9mbNn-47" value="Testing(30/20)" style="rounded=0;whiteSpace=wrap;html=1;fontStyle=1" parent="WIyWlLk6GJQsqaUBKTNV-1" vertex="1">
          <mxGeometry x="740" y="1310" width="90" height="50" as="geometry" />
        </mxCell>
        <mxCell id="JnTwqojmw0CL8Mj9mbNn-48" style="edgeStyle=orthogonalEdgeStyle;rounded=0;orthogonalLoop=1;jettySize=auto;html=1;entryX=0.5;entryY=0;entryDx=0;entryDy=0;fontStyle=1" parent="WIyWlLk6GJQsqaUBKTNV-1" source="JnTwqojmw0CL8Mj9mbNn-49" target="JnTwqojmw0CL8Mj9mbNn-52" edge="1">
          <mxGeometry relative="1" as="geometry" />
        </mxCell>
        <mxCell id="JnTwqojmw0CL8Mj9mbNn-49" value="Model Building ( LinearRegression , LogisticRegression , XGBoost Regressor )" style="rounded=0;whiteSpace=wrap;html=1;fontStyle=1" parent="WIyWlLk6GJQsqaUBKTNV-1" vertex="1">
          <mxGeometry x="360" y="1400" width="360" height="60" as="geometry" />
        </mxCell>
        <mxCell id="JnTwqojmw0CL8Mj9mbNn-50" style="edgeStyle=orthogonalEdgeStyle;rounded=0;orthogonalLoop=1;jettySize=auto;html=1;entryX=0;entryY=0.5;entryDx=0;entryDy=0;" parent="WIyWlLk6GJQsqaUBKTNV-1" source="JnTwqojmw0CL8Mj9mbNn-52" target="JnTwqojmw0CL8Mj9mbNn-45" edge="1">
          <mxGeometry relative="1" as="geometry">
            <mxPoint x="330" y="1300" as="targetPoint" />
            <Array as="points">
              <mxPoint x="320" y="1575" />
              <mxPoint x="320" y="1305" />
            </Array>
          </mxGeometry>
        </mxCell>
        <mxCell id="JnTwqojmw0CL8Mj9mbNn-51" style="edgeStyle=orthogonalEdgeStyle;rounded=0;orthogonalLoop=1;jettySize=auto;html=1;fontStyle=1" parent="WIyWlLk6GJQsqaUBKTNV-1" source="JnTwqojmw0CL8Mj9mbNn-52" edge="1">
          <mxGeometry relative="1" as="geometry">
            <mxPoint x="542.5" y="1690" as="targetPoint" />
          </mxGeometry>
        </mxCell>
        <mxCell id="JnTwqojmw0CL8Mj9mbNn-52" value="Model Evaluation&lt;br&gt;on test data" style="rhombus;whiteSpace=wrap;html=1;fontStyle=1" parent="WIyWlLk6GJQsqaUBKTNV-1" vertex="1">
          <mxGeometry x="465" y="1510" width="155" height="130" as="geometry" />
        </mxCell>
        <mxCell id="JnTwqojmw0CL8Mj9mbNn-53" value="Low Accuracy / &lt;br&gt;Very High Accuracy" style="text;html=1;align=center;verticalAlign=middle;resizable=0;points=[];autosize=1;strokeColor=none;fillColor=none;dashed=1;" parent="WIyWlLk6GJQsqaUBKTNV-1" vertex="1">
          <mxGeometry x="335" y="1530" width="130" height="40" as="geometry" />
        </mxCell>
        <mxCell id="JnTwqojmw0CL8Mj9mbNn-54" value="&lt;span style=&quot;font-weight: normal;&quot;&gt;Model with high accuracy&lt;/span&gt;" style="text;html=1;align=center;verticalAlign=middle;resizable=0;points=[];autosize=1;strokeColor=none;fillColor=none;fontStyle=1" parent="WIyWlLk6GJQsqaUBKTNV-1" vertex="1">
          <mxGeometry x="540" y="1640" width="160" height="30" as="geometry" />
        </mxCell>
        <mxCell id="JnTwqojmw0CL8Mj9mbNn-55" style="edgeStyle=orthogonalEdgeStyle;rounded=0;orthogonalLoop=1;jettySize=auto;html=1;exitX=0.5;exitY=1;exitDx=0;exitDy=0;fontStyle=1" parent="WIyWlLk6GJQsqaUBKTNV-1" source="JnTwqojmw0CL8Mj9mbNn-56" edge="1">
          <mxGeometry relative="1" as="geometry">
            <mxPoint x="543" y="1740" as="targetPoint" />
          </mxGeometry>
        </mxCell>
        <mxCell id="JnTwqojmw0CL8Mj9mbNn-56" value="Prediction&lt;br&gt;" style="rounded=0;whiteSpace=wrap;html=1;fontStyle=1" parent="WIyWlLk6GJQsqaUBKTNV-1" vertex="1">
          <mxGeometry x="492.5" y="1680" width="100" height="30" as="geometry" />
        </mxCell>
        <mxCell id="JnTwqojmw0CL8Mj9mbNn-57" style="edgeStyle=orthogonalEdgeStyle;rounded=0;orthogonalLoop=1;jettySize=auto;html=1;fontStyle=1" parent="WIyWlLk6GJQsqaUBKTNV-1" source="JnTwqojmw0CL8Mj9mbNn-58" edge="1">
          <mxGeometry relative="1" as="geometry">
            <mxPoint x="490" y="1695" as="targetPoint" />
          </mxGeometry>
        </mxCell>
        <mxCell id="JnTwqojmw0CL8Mj9mbNn-58" value="Input Data&lt;br&gt;" style="rounded=0;whiteSpace=wrap;html=1;fontStyle=1" parent="WIyWlLk6GJQsqaUBKTNV-1" vertex="1">
          <mxGeometry x="350" y="1680" width="70" height="30" as="geometry" />
        </mxCell>
        <mxCell id="JnTwqojmw0CL8Mj9mbNn-59" value="Stop" style="ellipse;whiteSpace=wrap;html=1;fontStyle=1" parent="WIyWlLk6GJQsqaUBKTNV-1" vertex="1">
          <mxGeometry x="485" y="1810" width="120" height="50" as="geometry" />
        </mxCell>
        <mxCell id="JnTwqojmw0CL8Mj9mbNn-60" value="&lt;span&gt;start&lt;/span&gt;" style="rounded=1;whiteSpace=wrap;html=1;fontSize=12;glass=0;strokeWidth=1;shadow=0;fontStyle=1" parent="WIyWlLk6GJQsqaUBKTNV-1" vertex="1">
          <mxGeometry x="480" y="940" width="120" height="40" as="geometry" />
        </mxCell>
        <mxCell id="t7njnNO2K516ghBHsvui-0" value="&lt;b style=&quot;font-size: 17px;&quot;&gt;Insurance Premium &lt;font style=&quot;font-size: 17px;&quot;&gt;Forecasting&lt;/font&gt;&lt;/b&gt;" style="text;html=1;align=center;verticalAlign=middle;resizable=0;points=[];autosize=1;strokeColor=none;fillColor=none;" parent="WIyWlLk6GJQsqaUBKTNV-1" vertex="1">
          <mxGeometry x="175" y="980" width="280" height="30" as="geometry" />
        </mxCell>
        <mxCell id="Hf4ReFA2gb87XtWvYdtD-1" value="" style="edgeStyle=orthogonalEdgeStyle;rounded=0;orthogonalLoop=1;jettySize=auto;html=1;fontStyle=1" parent="WIyWlLk6GJQsqaUBKTNV-1" source="Hf4ReFA2gb87XtWvYdtD-0" target="JnTwqojmw0CL8Mj9mbNn-59" edge="1">
          <mxGeometry relative="1" as="geometry" />
        </mxCell>
        <mxCell id="Hf4ReFA2gb87XtWvYdtD-0" value="UI Design and Deployment" style="rounded=0;whiteSpace=wrap;html=1;fontStyle=1" parent="WIyWlLk6GJQsqaUBKTNV-1" vertex="1">
          <mxGeometry x="480" y="1740" width="130" height="30" as="geometry" />
        </mxCell>
        <mxCell id="Hf4ReFA2gb87XtWvYdtD-3" value="" style="rounded=1;whiteSpace=wrap;html=1;" parent="WIyWlLk6GJQsqaUBKTNV-1" vertex="1">
          <mxGeometry x="630" y="1580" width="120" height="60" as="geometry" />
        </mxCell>
        <mxCell id="Hf4ReFA2gb87XtWvYdtD-5" value="" style="endArrow=none;dashed=1;html=1;rounded=0;fontStyle=1" parent="WIyWlLk6GJQsqaUBKTNV-1" edge="1">
          <mxGeometry width="50" height="50" relative="1" as="geometry">
            <mxPoint x="160" y="1926" as="sourcePoint" />
            <mxPoint x="160" y="1920" as="targetPoint" />
            <Array as="points">
              <mxPoint x="160" y="920" />
              <mxPoint x="340" y="920" />
              <mxPoint x="920" y="920" />
              <mxPoint x="920" y="1920" />
            </Array>
          </mxGeometry>
        </mxCell>
        <mxCell id="IKP5gJaBZjSgFD29eXoL-0" style="edgeStyle=orthogonalEdgeStyle;rounded=0;orthogonalLoop=1;jettySize=auto;html=1;entryX=0.5;entryY=0;entryDx=0;entryDy=0;entryPerimeter=0;" edge="1" parent="WIyWlLk6GJQsqaUBKTNV-1" source="JnTwqojmw0CL8Mj9mbNn-60" target="JnTwqojmw0CL8Mj9mbNn-40">
          <mxGeometry relative="1" as="geometry" />
        </mxCell>
        <mxCell id="IKP5gJaBZjSgFD29eXoL-1" value="Feature Engineering and extraction" style="rounded=0;whiteSpace=wrap;html=1;fontStyle=1" vertex="1" parent="WIyWlLk6GJQsqaUBKTNV-1">
          <mxGeometry x="480" y="1180" width="120" height="30" as="geometry" />
        </mxCell>
        <mxCell id="IKP5gJaBZjSgFD29eXoL-2" style="edgeStyle=orthogonalEdgeStyle;rounded=0;orthogonalLoop=1;jettySize=auto;html=1;entryX=0.506;entryY=-0.061;entryDx=0;entryDy=0;entryPerimeter=0;" edge="1" parent="WIyWlLk6GJQsqaUBKTNV-1" source="JnTwqojmw0CL8Mj9mbNn-43" target="IKP5gJaBZjSgFD29eXoL-1">
          <mxGeometry relative="1" as="geometry" />
        </mxCell>
      </root>
    </mxGraphModel>
  </diagram>
</mxfile>
